<svg xmlns="http://www.w3.org/2000/svg" version="1.1" xmlns:xlink="http://www.w3.org/1999/xlink" xmlns:svgjs="http://svgjs.dev/svgjs" width="100%" height="100%" viewBox="0 0 1000 600"><rect width="1000" height="600" x="0" y="0" fill="#295f2d"/><g><rect width="333.3333333333333" height="333.3333333333333" y="132.5902938673515" fill="#ffe67c" transform="matrix(1.1325741240177882,0,0,1.132574124017788,0,-38.93067383614999)" x="110.36804962158203"/><path d="M282.1435225405401 374.25695533891997L282.1435225405401 374.25695533891997Q258.44437674391014 374.25695533891997 242.80577873918787 364.8624436518726Q227.1671807344656 355.4679319648253 219.5039838900463 338.6088989071029Q211.84078704562705 321.7498658493805 211.84078704562705 299.04409742147163L211.84078704562705 299.04409742147163Q211.84078704562705 276.991119835865 219.92971704806962 260.1320867781426Q227.99026483997727 243.27305372042022 243.94106716058332 233.76501319123335Q259.86348727065445 224.25697266204648 283.36395759354025 224.25697266204648L283.36395759354025 224.25697266204648Q306.0697260214492 224.25697266204648 317.3090813932641 230.8132632956052Q328.54843676507903 237.34117171862903 328.54843676507903 247.16141656369965L328.54843676507903 247.16141656369965Q328.54843676507903 253.68932498672348 323.0139057107762 257.5776878300029Q317.5077568670083 261.4660506732823 309.5323557067053 261.4660506732823L309.5323557067053 261.4660506732823Q309.5323557067053 255.10843551346778 306.97795675856554 249.0914068800719Q304.4235578104258 243.07437824667605 298.49167580863457 239.07248656125708Q292.55979380684335 235.09897708637303 282.56925569856344 235.09897708637303L282.56925569856344 235.09897708637303Q256.5995330591426 235.09897708637303 245.55885316107185 251.75933467035122Q234.546555473536 268.39131004379453 234.546555473536 299.04409742147163L234.546555473536 299.04409742147163Q234.546555473536 329.6968847991486 246.0697329506998 346.15856690938267Q257.6212926383985 362.6202490196166 285.40747675205205 362.6202490196166L285.40747675205205 362.6202490196166Q291.33935875384327 362.6202490196166 296.87388980814603 361.99584038784917Q302.380038651914 361.3714317560816 306.66575244268176 360.15099670308155L306.66575244268176 360.15099670308155L306.66575244268176 327.2560146931485Q306.66575244268176 318.25885395358955 301.6704833885418 315.8179838475893Q296.64683212386694 313.3487315310542 289.9202482270989 313.3487315310542L289.9202482270989 313.3487315310542L289.09716412158724 313.3487315310542L289.09716412158724 304.77730394951857L342.2286622428942 304.77730394951857L342.2286622428942 313.3487315310542L341.40557813738246 313.3487315310542Q335.70075381987033 313.3487315310542 331.5001866607072 315.9031304791939Q327.29961950154404 318.4575294273337 327.29961950154404 328.0790987986602L327.29961950154404 328.0790987986602L327.29961950154404 364.8624436518726Q317.082023708985 369.5455083901288 306.26840149519336 371.90123186452445Q295.42639707086687 374.25695533891997 282.1435225405401 374.25695533891997Z " fill="#295f2d" transform="matrix(1.1325741240177882,0,0,1.132574124017788,0,-38.93067383614999)"/><path d="M558.2222155862387 374.2569562790603L558.2222155862387 374.2569562790603Q542.6180505730488 374.2569562790603 534.8263847320168 368.4861235572265Q527.0347188909848 362.7152908353926 527.0347188909848 352.3611252658927L527.0347188909848 352.3611252658927Q527.0347188909848 343.5069595374473 532.7222182883156 339.00696001428435Q538.4305510167723 334.5069604911215 545.7847169041635 333.15279396794745L545.7847169041635 333.15279396794745Q542.784717222055 331.7986274447734 540.1597175002098 328.7361277692876Q537.5347177783649 325.65279476267597 537.5347177783649 320.8611286037525L537.5347177783649 320.8611286037525Q537.5347177783649 316.36112908058965 539.8472175333236 313.0486294315947Q542.180550619408 309.75696311372553 547.2847167452178 306.756963431617L547.2847167452178 306.756963431617Q540.826384096234 304.0486303852689 537.3055511359815 297.8402977097942Q533.784718175729 291.6111317031937 533.784718175729 284.1111324979222L533.784718175729 284.1111324979222Q533.784718175729 271.2153005310804 540.826384096234 263.7778013191862Q547.8680500167388 256.3611354384177 561.9722151888744 256.3611354384177L561.9722151888744 256.3611354384177Q567.3680479504447 256.3611354384177 572.1805474404939 257.861135279472Q576.9722135994174 259.36113512052634 579.0763800431185 261.29863491522144L579.0763800431185 261.29863491522144Q581.1805464868197 258.90280183575976 584.9305460894554 256.0486354715314Q588.6805456920912 253.21530243842884 593.6180451688949 253.21530243842884L593.6180451688949 253.21530243842884Q598.1180446920578 253.21530243842884 600.305544460262 255.52780219338754Q602.4722108973403 257.861135279472 602.4722108973403 261.0069682794609L602.4722108973403 261.0069682794609Q602.4722108973403 264.1528012794497 600.5972110960226 266.4861343655342Q598.7222112947047 268.7986341204929 594.5347117384281 268.7986341204929L594.5347117384281 268.7986341204929Q594.5347117384281 267.15280096155834 593.5555451755176 265.4236344781208Q592.5763786126072 263.7153013258089 589.5763789304985 263.7153013258089L589.5763789304985 263.7153013258089Q586.1180459636234 263.7153013258089 583.1180462815148 265.50696780262376L583.1180462815148 265.50696780262376Q585.6805460099827 268.65280080261266 587.3263791689171 272.92363368339227Q588.9722123278518 277.21529989529756 588.9722123278518 283.6527992131556L588.9722123278518 283.6527992131556Q588.9722123278518 294.7569647031826 582.3055463676105 302.1111305905738Q575.6180470762433 309.465296477965 561.9722151888744 309.465296477965L561.9722151888744 309.465296477965Q560.1805487120596 309.465296477965 557.8472156259751 309.23612983558166Q555.5347158710164 309.00696319319843 554.034716029962 308.7152965574378L554.034716029962 308.7152965574378Q551.1805496657338 310.2152963984921 549.0763832220326 312.46529616007365Q546.9722167783314 314.71529592165507 546.9722167783314 318.1527955574045L546.9722167783314 318.1527955574045Q546.9722167783314 320.8611286037525 548.701383261769 322.3611284448068Q550.4305497452067 323.8611282858611 556.2847157915435 323.8611282858611L556.2847157915435 323.8611282858611L573.2222139967816 323.8611282858611Q586.57637924839 323.8611282858611 592.2847119768467 330.1527942858388Q597.9722113741775 336.4652936169424 597.9722113741775 346.2152925837953L597.9722113741775 346.2152925837953Q597.9722113741775 359.1111245506371 588.3055457318276 366.67362374928587Q578.618046758352 374.2569562790603 558.2222155862387 374.2569562790603ZM561.5347152352335 302.25696390845405L561.5347152352335 302.25696390845405Q568.8680477914991 302.25696390845405 571.8680474736077 297.7569643852912Q574.8680471557162 293.25696486212826 574.8680471557162 283.50696589527536L574.8680471557162 283.50696589527536Q574.8680471557162 273.2986336436559 571.8055474802304 268.5069674847324Q568.7222144736188 263.7153013258089 561.3680485862276 263.7153013258089L561.3680485862276 263.7153013258089Q554.1805493478423 263.7153013258089 551.0347163478534 268.65280080261266Q547.8680500167388 273.6111336105421 547.8680500167388 283.6527992131556L547.8680500167388 283.6527992131556Q547.8680500167388 293.25696486212826 551.0972163412307 297.7569643852912Q554.3263826657226 302.25696390845405 561.5347152352335 302.25696390845405ZM558.5347155531249 366.9027903916691L558.5347155531249 366.9027903916691Q569.3263810762656 366.9027903916691 575.1805471226025 364.5902906367104Q581.0347131689394 362.256957550626 583.3472129238982 358.13195798772665Q585.6805460099827 354.0069584248273 585.6805460099827 348.75695898113725L585.6805460099827 348.75695898113725Q585.6805460099827 341.8611263785127 581.7847130894665 339.5277932924282Q577.8680468378247 337.2152935374695 570.3680476325533 337.2152935374695L570.3680476325533 337.2152935374695L555.6805491888967 337.2152935374695Q551.4722163014943 337.2152935374695 547.7222166988586 338.3402934182602Q543.9722170962228 339.4652932990509 541.576384016761 342.46529298115956Q539.1805509372994 345.4652926632681 539.1805509372994 351.46529202748536L539.1805509372994 351.46529202748536Q539.1805509372994 355.79862490164214 540.826384096234 359.34029119302045Q542.4722172551685 362.86112415327284 546.6805501425708 364.881957272471Q550.8680496988475 366.9027903916691 558.5347155531249 366.9027903916691ZM635.0347074468942 339.75695993481156L635.0347074468942 339.75695993481156Q624.9722085131549 339.75695993481156 618.3680425462908 333.90279388847455Q611.7847099105525 328.04862784213765 611.7847099105525 315.7569624779427L611.7847099105525 315.7569624779427Q611.7847099105525 303.7569637495084 620.2430423476087 298.04863102105173Q628.7222081157907 292.3611316237209 645.9722062879151 291.75696502107394L645.9722062879151 291.75696502107394L658.4305383011161 291.29863173630736L658.4305383011161 282.29863268998156Q658.4305383011161 276.90279992841124 657.5347050627087 272.777800365512Q656.6180384931755 268.65280080261266 653.6180388110669 266.256967723151Q650.6180391289582 263.8611346436892 644.4722064468607 263.8611346436892L644.4722064468607 263.8611346436892Q638.7847070495299 263.8611346436892 635.7847073674212 265.96530108739034Q632.7847076853128 268.0486341999658 631.8055411224024 271.73613380922427Q630.8263745594919 275.40280008735704 630.8263745594919 280.2152995774062L630.8263745594919 280.2152995774062Q624.5347085595141 280.2152995774062 621.3055422350221 278.02779980920207Q618.0763759105303 275.8611333721236 618.0763759105303 270.7569672463138L618.0763759105303 270.7569672463138Q618.0763759105303 265.50696780262376 621.743042188663 262.36113480263487Q625.4305417979216 259.2153018026461 631.5763744800189 257.77780195496894Q637.7222071621164 256.3611354384177 645.0763730495077 256.3611354384177L645.0763730495077 256.3611354384177Q658.8680382547569 256.3611354384177 665.7013708640042 262.2153014847546Q672.5347034732516 268.0486341999658 672.5347034732516 282.29863268998156L672.5347034732516 282.29863268998156L672.5347034732516 321.152795239513Q672.5347034732516 327.4652945706166 674.6180365858271 329.715294332198Q676.7222030295283 331.96529409377945 681.8263691553378 331.96529409377945L681.8263691553378 331.96529409377945L682.2847024401045 331.96529409377945L682.2847024401045 338.25696009375724L662.0347045858715 338.25696009375724L659.6180381752841 325.36112812691545L658.4305383011161 325.36112812691545Q655.2847053011272 329.54862768319197 652.2847056190186 332.77779400768384Q649.28470593691 336.0069603321757 645.3055396918909 337.88196013349364Q641.326373446872 339.75695993481156 635.0347074468942 339.75695993481156ZM638.4722070826436 330.46529425272513L638.4722070826436 330.46529425272513Q647.6180394468496 330.46529425272513 653.0347055395458 324.8402948487716Q658.4305383011161 319.2152954448179 658.4305383011161 309.6111297958453L658.4305383011161 309.6111297958453L658.4305383011161 297.4652977495306L648.8263726521435 297.9027977031715Q636.076374003182 298.5069643058183 631.2013745197554 303.09029715348424Q626.3263750363288 307.6527966700244 626.3263750363288 316.5069623984699L626.3263750363288 316.5069623984699Q626.3263750363288 330.46529425272513 638.4722070826436 330.46529425272513ZM741.9721961153901 339.75695993481156L741.9721961153901 339.75695993481156Q733.2846970359507 339.75695993481156 727.8055309498774 336.0902936566788Q722.3263648638041 332.40279404742034 719.0346985459347 326.54862800108344L719.0346985459347 326.54862800108344L718.1180319764015 326.54862800108344L715.4305322611793 338.25696009375724L691.4305348043107 338.25696009375724L691.4305348043107 331.96529409377945L692.6180346784787 331.96529409377945Q697.7222008042883 331.96529409377945 701.3263670890439 330.09029429246164Q704.9305333737992 328.2152944911437 704.9305333737992 321.152795239513L704.9305333737992 321.152795239513L704.9305333737992 240.75697042522788Q704.9305333737992 234.15280445836382 701.2430337645409 232.36113798154895Q697.576367486408 230.54863817360834 692.6180346784787 230.54863817360834L692.6180346784787 230.54863817360834L691.4305348043107 230.54863817360834L691.4305348043107 224.2569721736306L719.0346985459347 224.2569721736306L719.0346985459347 251.86113591525483Q719.0346985459347 254.40280231259683 718.9513652214317 258.3819685576159Q718.8680318969288 262.36113480263487 718.7221985790485 266.02780108076763Q718.5763652611682 269.7153006900261 718.430531943288 271.36113384896066L718.430531943288 271.36113384896066L719.0346985459347 271.36113384896066Q722.4721981816843 264.465301246336 727.8680309432547 260.4028016768141Q733.2846970359507 256.3611354384177 741.9721961153901 256.3611354384177L741.9721961153901 256.3611354384177Q756.8263612080528 256.3611354384177 764.7013603735878 266.34030104765395Q772.576359539123 276.2986333257644 772.576359539123 297.9027977031715L772.576359539123 297.9027977031715Q772.576359539123 319.6527953984588 764.7013603735878 329.715294332198Q756.8263612080528 339.75695993481156 741.9721961153901 339.75695993481156ZM739.5763630359285 330.1527942858388L739.5763630359285 330.1527942858388Q749.4721953206616 330.1527942858388 753.7430282014412 321.84029516666294Q758.0346944133465 313.5069627163613 758.0346944133465 297.7569643852912L758.0346944133465 297.7569643852912Q758.0346944133465 281.7152994184605 753.7430282014412 273.84030025292543Q749.4721953206616 265.96530108739034 739.4305297180482 265.96530108739034L739.4305297180482 265.96530108739034Q727.7221976253742 265.96530108739034 723.3680314200916 273.84030025292543Q719.0346985459347 281.7152994184605 719.0346985459347 297.9027977031715L719.0346985459347 297.9027977031715Q719.0346985459347 313.5069627163613 723.3680314200916 321.84029516666294Q727.7221976253742 330.1527942858388 739.5763630359285 330.1527942858388Z " fill="#ffe67c" transform="matrix(1.1325741240177882,0,0,1.132574124017788,0,-38.93067383614999)"/></g></svg>